<?xml version="1.0" encoding="UTF-8"?>
<!DOCTYPE svg
  PUBLIC '-//W3C//DTD SVG 1.1//EN'
  'http://www.w3.org/Graphics/SVG/1.1/DTD/svg11.dtd'>
<svg version="1.1" xmlns="http://www.w3.org/2000/svg" width="65.500mm" height="38.764mm">
    <!--Autogenerated with python-barcode 0.14.0-->
    <g id="barcode_group">
        <rect width="100%" height="100%" style="fill:white"/>
        <rect x="2.000mm" y="1.000mm" width="1.000mm" height="30.000mm" style="fill:black;"/>
        <rect x="3.500mm" y="1.000mm" width="0.500mm" height="30.000mm" style="fill:black;"/>
        <rect x="5.000mm" y="1.000mm" width="1.500mm" height="30.000mm" style="fill:black;"/>
        <rect x="7.500mm" y="1.000mm" width="2.000mm" height="30.000mm" style="fill:black;"/>
        <rect x="10.000mm" y="1.000mm" width="0.500mm" height="30.000mm" style="fill:black;"/>
        <rect x="12.000mm" y="1.000mm" width="0.500mm" height="30.000mm" style="fill:black;"/>
        <rect x="13.000mm" y="1.000mm" width="1.000mm" height="30.000mm" style="fill:black;"/>
        <rect x="15.000mm" y="1.000mm" width="1.000mm" height="30.000mm" style="fill:black;"/>
        <rect x="17.000mm" y="1.000mm" width="1.000mm" height="30.000mm" style="fill:black;"/>
        <rect x="18.500mm" y="1.000mm" width="0.500mm" height="30.000mm" style="fill:black;"/>
        <rect x="20.000mm" y="1.000mm" width="1.000mm" height="30.000mm" style="fill:black;"/>
        <rect x="22.000mm" y="1.000mm" width="0.500mm" height="30.000mm" style="fill:black;"/>
        <rect x="24.000mm" y="1.000mm" width="2.000mm" height="30.000mm" style="fill:black;"/>
        <rect x="27.000mm" y="1.000mm" width="0.500mm" height="30.000mm" style="fill:black;"/>
        <rect x="28.000mm" y="1.000mm" width="0.500mm" height="30.000mm" style="fill:black;"/>
        <rect x="29.500mm" y="1.000mm" width="1.500mm" height="30.000mm" style="fill:black;"/>
        <rect x="31.500mm" y="1.000mm" width="0.500mm" height="30.000mm" style="fill:black;"/>
        <rect x="33.000mm" y="1.000mm" width="1.000mm" height="30.000mm" style="fill:black;"/>
        <rect x="35.000mm" y="1.000mm" width="1.500mm" height="30.000mm" style="fill:black;"/>
        <rect x="37.000mm" y="1.000mm" width="0.500mm" height="30.000mm" style="fill:black;"/>
        <rect x="38.500mm" y="1.000mm" width="1.000mm" height="30.000mm" style="fill:black;"/>
        <rect x="40.500mm" y="1.000mm" width="1.500mm" height="30.000mm" style="fill:black;"/>
        <rect x="42.500mm" y="1.000mm" width="1.000mm" height="30.000mm" style="fill:black;"/>
        <rect x="44.000mm" y="1.000mm" width="0.500mm" height="30.000mm" style="fill:black;"/>
        <rect x="46.000mm" y="1.000mm" width="1.000mm" height="30.000mm" style="fill:black;"/>
        <rect x="48.000mm" y="1.000mm" width="1.500mm" height="30.000mm" style="fill:black;"/>
        <rect x="50.000mm" y="1.000mm" width="0.500mm" height="30.000mm" style="fill:black;"/>
        <rect x="51.500mm" y="1.000mm" width="0.500mm" height="30.000mm" style="fill:black;"/>
        <rect x="54.000mm" y="1.000mm" width="1.000mm" height="30.000mm" style="fill:black;"/>
        <rect x="55.500mm" y="1.000mm" width="0.500mm" height="30.000mm" style="fill:black;"/>
        <rect x="57.000mm" y="1.000mm" width="1.000mm" height="30.000mm" style="fill:black;"/>
        <rect x="59.500mm" y="1.000mm" width="1.500mm" height="30.000mm" style="fill:black;"/>
        <rect x="61.500mm" y="1.000mm" width="0.500mm" height="30.000mm" style="fill:black;"/>
        <rect x="62.500mm" y="1.000mm" width="1.000mm" height="30.000mm" style="fill:black;"/>
        <text x="32.750mm" y="36.000mm" style="fill:black;font-size:10pt;text-anchor:middle;">9802068724245722</text>
    </g>
</svg>
