<?xml version="1.0" encoding="UTF-8"?>
<!DOCTYPE svg
  PUBLIC '-//W3C//DTD SVG 1.1//EN'
  'http://www.w3.org/Graphics/SVG/1.1/DTD/svg11.dtd'>
<svg version="1.1" xmlns="http://www.w3.org/2000/svg" width="102.400mm" height="38.764mm">
    <!--Autogenerated with python-barcode 0.14.0-->
    <g id="barcode_group">
        <rect width="100%" height="100%" style="fill:white"/>
        <rect x="2.000mm" y="1.000mm" width="1.600mm" height="30.000mm" style="fill:black;"/>
        <rect x="4.400mm" y="1.000mm" width="0.800mm" height="30.000mm" style="fill:black;"/>
        <rect x="6.800mm" y="1.000mm" width="2.400mm" height="30.000mm" style="fill:black;"/>
        <rect x="10.800mm" y="1.000mm" width="3.200mm" height="30.000mm" style="fill:black;"/>
        <rect x="14.800mm" y="1.000mm" width="0.800mm" height="30.000mm" style="fill:black;"/>
        <rect x="18.000mm" y="1.000mm" width="0.800mm" height="30.000mm" style="fill:black;"/>
        <rect x="19.600mm" y="1.000mm" width="1.600mm" height="30.000mm" style="fill:black;"/>
        <rect x="22.800mm" y="1.000mm" width="1.600mm" height="30.000mm" style="fill:black;"/>
        <rect x="26.000mm" y="1.000mm" width="1.600mm" height="30.000mm" style="fill:black;"/>
        <rect x="28.400mm" y="1.000mm" width="0.800mm" height="30.000mm" style="fill:black;"/>
        <rect x="31.600mm" y="1.000mm" width="1.600mm" height="30.000mm" style="fill:black;"/>
        <rect x="34.800mm" y="1.000mm" width="0.800mm" height="30.000mm" style="fill:black;"/>
        <rect x="37.200mm" y="1.000mm" width="0.800mm" height="30.000mm" style="fill:black;"/>
        <rect x="39.600mm" y="1.000mm" width="1.600mm" height="30.000mm" style="fill:black;"/>
        <rect x="44.400mm" y="1.000mm" width="0.800mm" height="30.000mm" style="fill:black;"/>
        <rect x="46.000mm" y="1.000mm" width="1.600mm" height="30.000mm" style="fill:black;"/>
        <rect x="49.200mm" y="1.000mm" width="0.800mm" height="30.000mm" style="fill:black;"/>
        <rect x="50.800mm" y="1.000mm" width="0.800mm" height="30.000mm" style="fill:black;"/>
        <rect x="54.800mm" y="1.000mm" width="0.800mm" height="30.000mm" style="fill:black;"/>
        <rect x="57.200mm" y="1.000mm" width="1.600mm" height="30.000mm" style="fill:black;"/>
        <rect x="59.600mm" y="1.000mm" width="2.400mm" height="30.000mm" style="fill:black;"/>
        <rect x="63.600mm" y="1.000mm" width="2.400mm" height="30.000mm" style="fill:black;"/>
        <rect x="68.400mm" y="1.000mm" width="1.600mm" height="30.000mm" style="fill:black;"/>
        <rect x="70.800mm" y="1.000mm" width="0.800mm" height="30.000mm" style="fill:black;"/>
        <rect x="72.400mm" y="1.000mm" width="2.400mm" height="30.000mm" style="fill:black;"/>
        <rect x="76.400mm" y="1.000mm" width="0.800mm" height="30.000mm" style="fill:black;"/>
        <rect x="78.000mm" y="1.000mm" width="1.600mm" height="30.000mm" style="fill:black;"/>
        <rect x="81.200mm" y="1.000mm" width="0.800mm" height="30.000mm" style="fill:black;"/>
        <rect x="82.800mm" y="1.000mm" width="2.400mm" height="30.000mm" style="fill:black;"/>
        <rect x="86.000mm" y="1.000mm" width="1.600mm" height="30.000mm" style="fill:black;"/>
        <rect x="90.000mm" y="1.000mm" width="1.600mm" height="30.000mm" style="fill:black;"/>
        <rect x="94.000mm" y="1.000mm" width="2.400mm" height="30.000mm" style="fill:black;"/>
        <rect x="97.200mm" y="1.000mm" width="0.800mm" height="30.000mm" style="fill:black;"/>
        <rect x="98.800mm" y="1.000mm" width="1.600mm" height="30.000mm" style="fill:black;"/>
        <text x="51.200mm" y="36.000mm" style="fill:black;font-size:10pt;text-anchor:middle;">9802087276135925</text>
    </g>
</svg>
